# xmcd
#
# Track frame offsets: 
#        150
#        20881
#        39948
#        64613
#        81921
#        97426
#        113148
#        134053
#        150399
#        169145
#
# Disc length: 2514 seconds
#
# Revision: 0
# Processed by: cddbd v1.5.2PL0 Copyright (c) Steve Scherf et al.
# Submitted via: ExactAudioCopyFreeDBPlugin 1.0
#
DISCID=8709d00a
DTITLE=24 Pesos - Do The Right Thing
DYEAR=2014
DGENRE=Blues
TTITLE0=Step Back
TTITLE1=Won't Lie Down
TTITLE2=Rise Up
TTITLE3=Clap Hands
TTITLE4=The Good Lord Did
TTITLE5=Need Somebody
TTITLE6=Night Train
TTITLE7=If You Want It
TTITLE8=Do The Right Thing
TTITLE9=Boom Boom
EXTD=
EXTT0=
EXTT1=
EXTT2=
EXTT3=
EXTT4=
EXTT5=
EXTT6=
EXTT7=
EXTT8=
EXTT9=
PLAYORDER=
